<svg width="216" height="25" viewBox="0 0 216 25" fill="none" xmlns="http://www.w3.org/2000/svg">
<path d="M7.55016 22.0356C16.6045 22.0356 21.5583 14.5323 21.5583 8.02751C21.5583 7.81657 21.5536 7.60094 21.5442 7.39001C22.5079 6.69311 23.3395 5.8299 24 4.84094C23.1025 5.24024 22.1496 5.50103 21.1739 5.61438C22.2013 4.99855 22.9705 4.03112 23.3391 2.89141C22.3726 3.4642 21.3156 3.86826 20.2134 4.08626C19.4708 3.29721 18.489 2.77476 17.4197 2.5997C16.3504 2.42463 15.2532 2.60669 14.2977 3.11774C13.3423 3.62879 12.5818 4.44035 12.1338 5.42696C11.6859 6.41356 11.5754 7.52026 11.8195 8.57594C9.86249 8.47774 7.94794 7.96935 6.19998 7.08374C4.45203 6.19814 2.90969 4.95508 1.67297 3.43516C1.0444 4.51889 0.852057 5.80129 1.13503 7.02174C1.418 8.24218 2.15506 9.30909 3.19641 10.0056C2.41463 9.98081 1.64998 9.77032 0.965625 9.39157V9.45251C0.964925 10.5898 1.3581 11.6922 2.07831 12.5724C2.79852 13.4526 3.80132 14.0562 4.91625 14.2806C4.19206 14.4788 3.43198 14.5076 2.69484 14.365C3.00945 15.3431 3.62157 16.1985 4.44577 16.812C5.26997 17.4254 6.26512 17.7662 7.29234 17.7869C5.54842 19.1568 3.39417 19.8998 1.17656 19.8963C0.783287 19.8957 0.390399 19.8715 0 19.8241C2.25286 21.2694 4.87353 22.037 7.55016 22.0356Z" fill="#98A2B3"/>
<g clip-path="url(#clip0_1_777)">
<path d="M70.2234 0.285645H49.7719C48.7922 0.285645 48 1.05908 48 2.01533V22.5513C48 23.5075 48.7922 24.2856 49.7719 24.2856H70.2234C71.2031 24.2856 72 23.5075 72 22.556V2.01533C72 1.05908 71.2031 0.285645 70.2234 0.285645ZM55.1203 20.7372H51.5578V9.28096H55.1203V20.7372ZM53.3391 7.72002C52.1953 7.72002 51.2719 6.79658 51.2719 5.65752C51.2719 4.51846 52.1953 3.59502 53.3391 3.59502C54.4781 3.59502 55.4016 4.51846 55.4016 5.65752C55.4016 6.79189 54.4781 7.72002 53.3391 7.72002ZM68.4516 20.7372H64.8937V15.1685C64.8937 13.8419 64.8703 12.131 63.0422 12.131C61.1906 12.131 60.9094 13.5794 60.9094 15.0747V20.7372H57.3563V9.28096H60.7687V10.8466H60.8156C61.2891 9.94658 62.4516 8.99502 64.1813 8.99502C67.7859 8.99502 68.4516 11.3669 68.4516 14.4513V20.7372Z" fill="#98A2B3"/>
</g>
<g clip-path="url(#clip1_1_777)">
<path d="M120 12.2856C120 5.65822 114.627 0.285645 108 0.285645C101.373 0.285645 96 5.65822 96 12.2856C96 18.2751 100.388 23.2396 106.125 24.1399V15.7544H103.078V12.2856H106.125V9.6419C106.125 6.6344 107.917 4.97314 110.658 4.97314C111.97 4.97314 113.344 5.20752 113.344 5.20752V8.16064H111.831C110.34 8.16064 109.875 9.08572 109.875 10.0356V12.2856H113.203L112.671 15.7544H109.875V24.1399C115.612 23.2396 120 18.2751 120 12.2856Z" fill="#98A2B3"/>
</g>
<g clip-path="url(#clip2_1_777)">
<path fill-rule="evenodd" clip-rule="evenodd" d="M156 0.285645C149.372 0.285645 144 5.66644 144 12.306C144 17.616 147.438 22.122 152.207 23.7108C152.807 23.8212 153.025 23.4504 153.025 23.1312C153.025 22.8468 153.016 22.0896 153.01 21.0876C149.671 21.8136 148.967 19.476 148.967 19.476C148.422 18.0864 147.635 17.7168 147.635 17.7168C146.545 16.9728 147.718 16.9872 147.718 16.9872C148.921 17.0712 149.555 18.2256 149.555 18.2256C150.625 20.0616 152.364 19.5312 153.047 19.224C153.157 18.4476 153.467 17.9184 153.81 17.6184C151.146 17.3148 148.344 16.2828 148.344 11.6772C148.344 10.3656 148.812 9.29164 149.579 8.45164C149.455 8.14804 149.044 6.92524 149.696 5.27164C149.696 5.27164 150.704 4.94764 152.996 6.50284C153.975 6.23586 154.985 6.09988 156 6.09844C157.02 6.10324 158.046 6.23644 159.005 6.50284C161.296 4.94764 162.301 5.27044 162.301 5.27044C162.956 6.92524 162.544 8.14804 162.421 8.45164C163.189 9.29164 163.655 10.3656 163.655 11.6772C163.655 16.2948 160.848 17.3112 158.176 17.6088C158.606 17.9796 158.989 18.7128 158.989 19.8348C158.989 21.4404 158.975 22.7376 158.975 23.1312C158.975 23.4528 159.191 23.8272 159.8 23.7096C162.19 22.9082 164.267 21.376 165.739 19.3297C167.21 17.2834 168.001 14.8264 168 12.306C168 5.66644 162.626 0.285645 156 0.285645Z" fill="#98A2B3"/>
</g>
<path fill-rule="evenodd" clip-rule="evenodd" d="M204 0.285645C197.375 0.285645 192 5.66092 192 12.2856C192 18.9104 197.375 24.2856 204 24.2856C210.612 24.2856 216 18.9104 216 12.2856C216 5.66092 210.612 0.285645 204 0.285645ZM211.926 5.8171C213.358 7.56113 214.217 9.78672 214.243 12.1945C213.905 12.1295 210.521 11.4396 207.111 11.8692C207.033 11.7 206.967 11.5177 206.889 11.3355C206.681 10.841 206.447 10.3334 206.213 9.85182C209.987 8.31604 211.705 6.10343 211.926 5.8171ZM204 2.05571C206.603 2.05571 208.985 3.03185 210.794 4.63272C210.612 4.89302 209.063 6.96244 205.419 8.32902C203.74 5.24443 201.879 2.71948 201.592 2.32903C202.36 2.14681 203.167 2.05571 204 2.05571ZM199.64 3.01883C199.913 3.38326 201.735 5.92122 203.44 8.94072C198.651 10.2162 194.421 10.1902 193.965 10.1902C194.629 7.01449 196.777 4.37241 199.64 3.01883ZM193.744 12.2987C193.744 12.1945 193.744 12.0904 193.744 11.9863C194.187 11.9993 199.158 12.0644 204.273 10.5286C204.573 11.1012 204.846 11.6869 205.106 12.2726C204.976 12.3117 204.833 12.3507 204.703 12.3897C199.419 14.0947 196.607 18.7542 196.373 19.1446C194.746 17.3355 193.744 14.9277 193.744 12.2987ZM204 22.5416C201.631 22.5416 199.445 21.7347 197.714 20.3811C197.896 20.0037 199.978 15.995 205.757 13.9776C205.783 13.9646 205.796 13.9646 205.822 13.9516C207.267 17.6869 207.853 20.8236 208.009 21.7216C206.772 22.2552 205.419 22.5416 204 22.5416ZM209.714 20.7846C209.61 20.1598 209.063 17.1663 207.722 13.483C210.937 12.9754 213.748 13.8084 214.1 13.9256C213.657 16.7759 212.017 19.2357 209.714 20.7846Z" fill="#98A2B3"/>
<defs>
<clipPath id="clip0_1_777">
<rect width="24" height="24" fill="white" transform="translate(48 0.285645)"/>
</clipPath>
<clipPath id="clip1_1_777">
<rect width="24" height="24" fill="white" transform="translate(96 0.285645)"/>
</clipPath>
<clipPath id="clip2_1_777">
<rect width="24" height="24" fill="white" transform="translate(144 0.285645)"/>
</clipPath>
</defs>
</svg>
