<svg width="228" height="20" viewBox="0 0 228 20" fill="none" xmlns="http://www.w3.org/2000/svg">
<path d="M92.2918 18.125C99.8371 18.125 103.965 11.8723 103.965 6.45161C103.965 6.27583 103.961 6.09614 103.954 5.92036C104.757 5.33961 105.45 4.62027 106 3.79614C105.252 4.12889 104.458 4.34621 103.645 4.44067C104.501 3.92748 105.142 3.12129 105.449 2.17153C104.644 2.64886 103.763 2.98557 102.845 3.16724C102.226 2.5097 101.407 2.07432 100.516 1.92844C99.6253 1.78255 98.711 1.93427 97.9148 2.36014C97.1186 2.78601 96.4848 3.46232 96.1115 4.28449C95.7382 5.10666 95.6462 6.02891 95.8496 6.90864C94.2187 6.8268 92.6233 6.40315 91.1667 5.66514C89.71 4.92714 88.4247 3.89126 87.3941 2.62466C86.8703 3.52776 86.71 4.59643 86.9459 5.61347C87.1817 6.63051 87.7959 7.5196 88.6637 8.10005C88.0122 8.07937 87.375 7.90396 86.8047 7.58833V7.63911C86.8041 8.58685 87.1317 9.50555 87.7319 10.239C88.3321 10.9725 89.1678 11.4755 90.0969 11.6625C89.4934 11.8277 88.86 11.8517 88.2457 11.7329C88.5079 12.5479 89.018 13.2608 89.7048 13.772C90.3916 14.2832 91.2209 14.5672 92.077 14.5844C90.6237 15.726 88.8285 16.3452 86.9805 16.3422C86.6527 16.3417 86.3253 16.3216 86 16.2821C87.8774 17.4865 90.0613 18.1262 92.2918 18.125Z" fill="#98A2B3"/>
<g clip-path="url(#clip0_1_498)">
<path d="M140.52 0H123.477C122.66 0 122 0.644531 122 1.44141V18.5547C122 19.3516 122.66 20 123.477 20H140.52C141.336 20 142 19.3516 142 18.5586V1.44141C142 0.644531 141.336 0 140.52 0ZM127.934 17.043H124.965V7.49609H127.934V17.043ZM126.449 6.19531C125.496 6.19531 124.727 5.42578 124.727 4.47656C124.727 3.52734 125.496 2.75781 126.449 2.75781C127.398 2.75781 128.168 3.52734 128.168 4.47656C128.168 5.42188 127.398 6.19531 126.449 6.19531ZM139.043 17.043H136.078V12.4023C136.078 11.2969 136.059 9.87109 134.535 9.87109C132.992 9.87109 132.758 11.0781 132.758 12.3242V17.043H129.797V7.49609H132.641V8.80078H132.68C133.074 8.05078 134.043 7.25781 135.484 7.25781C138.488 7.25781 139.043 9.23438 139.043 11.8047V17.043Z" fill="#98A2B3"/>
</g>
<defs>
<clipPath id="clip0_1_498">
<rect width="20" height="20" fill="white" transform="translate(122)"/>
</clipPath>
</defs>
</svg>
